<svg width="36" height="36" viewBox="0 0 36 36" fill="none" xmlns="http://www.w3.org/2000/svg">
<path d="M10 33C11.1046 33 12 32.1046 12 31C12 29.8954 11.1046 29 10 29C8.89543 29 8 29.8954 8 31C8 32.1046 8.89543 33 10 33Z" fill="black"/>
<path d="M23 33C24.1046 33 25 32.1046 25 31C25 29.8954 24.1046 29 23 29C21.8954 29 21 29.8954 21 31C21 32.1046 21.8954 33 23 33Z" fill="black"/>
<path d="M5.2875 13H27.7125L24.4125 24.55C24.2948 24.9692 24.0426 25.3381 23.6948 25.6001C23.3471 25.862 22.9229 26.0025 22.4875 26H10.5125C10.0771 26.0025 9.65293 25.862 9.30515 25.6001C8.95738 25.3381 8.70524 24.9692 8.5875 24.55L4.0625 8.725C4.0027 8.51594 3.8764 8.33207 3.70271 8.20125C3.52903 8.07042 3.31744 7.99977 3.1 8H1" stroke="black" stroke-width="2" stroke-linecap="round" stroke-linejoin="round"/>
<rect x="16" width="20" height="20" rx="10" fill="#FA8232"/>
<path d="M23.0049 14V13.22V12.818C23.0049 12.374 23.0869 11.992 23.2509 11.672C23.4149 11.348 23.6329 11.066 23.9049 10.826C24.1769 10.586 24.4749 10.374 24.7989 10.19C25.1269 10.002 25.4509 9.826 25.7709 9.662C26.0949 9.494 26.3929 9.322 26.6649 9.146C26.9369 8.966 27.1549 8.766 27.3189 8.546C27.4869 8.326 27.5709 8.064 27.5709 7.76C27.5709 7.372 27.4329 7.056 27.1569 6.812C26.8849 6.564 26.5149 6.44 26.0469 6.44C25.5509 6.44 25.1409 6.582 24.8169 6.866C24.4969 7.15 24.3069 7.55 24.2469 8.066H22.8309C22.8389 7.538 22.9649 7.058 23.2089 6.626C23.4529 6.194 23.8149 5.85 24.2949 5.594C24.7749 5.334 25.3729 5.204 26.0889 5.204C26.7089 5.204 27.2429 5.312 27.6909 5.528C28.1429 5.74 28.4909 6.038 28.7349 6.422C28.9829 6.802 29.1069 7.246 29.1069 7.754C29.1069 8.198 29.0249 8.578 28.8609 8.894C28.7009 9.21 28.4869 9.484 28.2189 9.716C27.9549 9.944 27.6629 10.146 27.3429 10.322C27.0269 10.498 26.7089 10.664 26.3889 10.82C26.0729 10.972 25.7809 11.132 25.5129 11.3C25.2489 11.464 25.0349 11.652 24.8709 11.864C24.7109 12.076 24.6309 12.33 24.6309 12.626V12.752H29.1249V14H23.0049Z" fill="white"/>
</svg>
