<svg width="16" height="16" viewBox="0 0 16 16" fill="none" xmlns="http://www.w3.org/2000/svg">
<g clip-path="url(#clip0_94_7229)">
<path fill-rule="evenodd" clip-rule="evenodd" d="M8 0C12.4183 0 16 3.58173 16 8C16 12.4183 12.4183 16 8 16C3.58173 16 0 12.4183 0 8C0 3.58173 3.58173 0 8 0Z" fill="white"/>
<path d="M8.98981 15.9305V9.53272H10.7647L11 7.28101H8.98981L8.9928 6.15392C8.9928 5.56663 9.0477 5.25209 9.87783 5.25209H10.9876V3H9.21224C7.07977 3 6.32931 4.09227 6.32931 5.92939V7.28118H5V9.5331H6.32931V15.8398C6.84718 15.9446 7.38257 16 7.93075 16C8.28487 16 8.63863 15.9768 8.98981 15.9305Z" fill="#1B6392"/>
</g>
<defs>
<clipPath id="clip0_94_7229">
<rect width="16" height="16" fill="white"/>
</clipPath>
</defs>
</svg>
