<svg width="16" height="16" viewBox="0 0 16 16" fill="none" xmlns="http://www.w3.org/2000/svg">
<g clip-path="url(#clip0_94_7235)">
<path d="M5.66723 8C5.66723 6.71138 6.71161 5.66648 8.00028 5.66648C9.28895 5.66648 10.3339 6.71138 10.3339 8C10.3339 9.28862 9.28895 10.3335 8.00028 10.3335C6.71161 10.3335 5.66723 9.28862 5.66723 8ZM4.40572 8C4.40572 9.9852 6.015 11.5944 8.00028 11.5944C9.98556 11.5944 11.5948 9.9852 11.5948 8C11.5948 6.0148 9.98556 4.40558 8.00028 4.40558C6.015 4.40558 4.40578 6.01469 4.40578 8H4.40572ZM10.8972 4.26306C10.8971 4.4292 10.9463 4.59163 11.0385 4.7298C11.1308 4.86797 11.262 4.97569 11.4154 5.03933C11.5689 5.10297 11.7378 5.11967 11.9008 5.08732C12.0637 5.05498 12.2134 4.97504 12.331 4.85761C12.4485 4.74018 12.5285 4.59054 12.561 4.42761C12.5935 4.26467 12.5769 4.09577 12.5134 3.94226C12.4499 3.78874 12.3423 3.65751 12.2042 3.56515C12.0661 3.4728 11.9037 3.42347 11.7375 3.4234H11.7372C11.5145 3.4235 11.3009 3.51199 11.1434 3.66943C10.9859 3.82686 10.8974 4.04037 10.8972 4.26306ZM5.17217 13.6979C4.48967 13.6668 4.11871 13.5531 3.87219 13.4571C3.54536 13.3299 3.31216 13.1783 3.06699 12.9335C2.82181 12.6887 2.67004 12.4557 2.54337 12.1289C2.44727 11.8825 2.33358 11.5114 2.30256 10.829C2.26862 10.0911 2.26184 9.86945 2.26184 8.00011C2.26184 6.13078 2.26918 5.90974 2.30256 5.17127C2.33364 4.4888 2.44816 4.11847 2.54337 3.87134C2.6706 3.54453 2.82214 3.31134 3.06699 3.06618C3.31183 2.82101 3.5448 2.66925 3.87219 2.54258C4.1186 2.44648 4.48967 2.3328 5.17217 2.30178C5.91005 2.26784 6.13171 2.26106 8.00028 2.26106C9.86885 2.26106 10.0907 2.26829 10.8292 2.30189C11.5117 2.33297 11.8821 2.44749 12.1292 2.54269C12.456 2.66936 12.6892 2.82146 12.9344 3.06629C13.1796 3.31112 13.3308 3.54464 13.458 3.87146C13.5541 4.11786 13.6678 4.48891 13.6988 5.17138C13.7328 5.90986 13.7396 6.13089 13.7396 8.00022C13.7396 9.86956 13.7328 10.0906 13.6988 10.8291C13.6678 11.5115 13.5535 11.8825 13.458 12.129C13.3308 12.4558 13.1793 12.689 12.9344 12.9336C12.6896 13.1782 12.456 13.33 12.1292 13.4572C11.8828 13.5533 11.5117 13.667 10.8292 13.698C10.0913 13.7319 9.86969 13.7387 8.00028 13.7387C6.13087 13.7387 5.90983 13.7319 5.17217 13.698V13.6979ZM5.1142 1.04239C4.36898 1.07633 3.85975 1.19449 3.41504 1.36753C2.95476 1.54622 2.56459 1.78596 2.17498 2.17494C1.78538 2.56391 1.54625 2.95412 1.36754 3.41494C1.1945 3.85992 1.07633 4.36885 1.04239 5.11404C1.0079 5.86041 1 6.09902 1 8C1 9.90098 1.0079 10.1396 1.04239 10.886C1.07633 11.6312 1.1945 12.1401 1.36754 12.5851C1.54625 13.0453 1.78543 13.4363 2.17498 13.8251C2.56453 14.2139 2.9542 14.4533 3.41504 14.6325C3.86059 14.8055 4.36898 14.9237 5.1142 14.9576C5.86099 14.9915 6.09923 15 8.00028 15C9.90133 15 10.14 14.9921 10.8864 14.9576C11.6316 14.9237 12.1405 14.8055 12.5855 14.6325C13.0458 14.4533 13.436 14.214 13.8256 13.8251C14.2152 13.4361 14.4538 13.0453 14.633 12.5851C14.8061 12.1401 14.9248 11.6312 14.9582 10.886C14.9921 10.139 15 9.90098 15 8C15 6.09902 14.9921 5.86041 14.9582 5.11404C14.9242 4.36879 14.8061 3.85964 14.633 3.41494C14.4538 2.95468 14.2146 2.56453 13.8256 2.17494C13.4366 1.78534 13.0458 1.54622 12.5861 1.36753C12.1405 1.19449 11.6316 1.07577 10.8869 1.04239C10.1404 1.00829 9.90189 1 8.00112 1C6.10035 1 5.86128 1.0079 5.11449 1.04239" fill="white"/>
</g>
<defs>
<clipPath id="clip0_94_7235">
<rect width="16" height="16" fill="white"/>
</clipPath>
</defs>
</svg>
