<svg width="16" height="16" viewBox="0 0 16 16" fill="none" xmlns="http://www.w3.org/2000/svg">
<path d="M5.03184 14C11.0699 14 14.3718 8.99903 14.3718 4.66236C14.3718 4.52033 14.3689 4.37896 14.3625 4.23817C15.005 3.77339 15.5595 3.19792 16 2.53874C15.4118 2.80017 14.7789 2.97613 14.1149 3.05546C14.7926 2.64918 15.3129 2.00643 15.5584 1.24027C14.914 1.62244 14.2091 1.89184 13.4739 2.03688C12.8749 1.39897 12.0221 1 11.0778 1C9.26494 1 7.79489 2.46971 7.79489 4.28136C7.79489 4.53892 7.82374 4.78937 7.88006 5.02968C5.15177 4.89243 2.73252 3.58651 1.11343 1.60079C0.821818 2.10163 0.668434 2.67084 0.668943 3.2503C0.668943 4.3889 1.24846 5.39403 2.12976 5.98209C1.60846 5.96617 1.0986 5.8254 0.643057 5.57161C0.642569 5.58539 0.642569 5.59881 0.642569 5.61354C0.642569 7.20288 1.77408 8.52989 3.27613 8.83058C2.99402 8.90739 2.70292 8.94622 2.41054 8.94605C2.19938 8.94605 1.99359 8.92529 1.79359 8.8869C2.21151 10.1909 3.42335 11.1398 4.86013 11.1663C3.73659 12.0467 2.32127 12.5711 0.783024 12.5711C0.521349 12.5713 0.259888 12.5561 0 12.5256C1.45281 13.4566 3.17789 13.9998 5.032 13.9998" fill="white"/>
</svg>
