<svg width="16" height="16" viewBox="0 0 16 16" fill="none" xmlns="http://www.w3.org/2000/svg">
<g clip-path="url(#clip0_94_7232)">
<path d="M8.35447 12.9856L5.07189 12.9259C4.00906 12.9051 2.94359 12.9466 1.90161 12.7312C0.316503 12.4094 0.204208 10.8314 0.086704 9.50771C-0.0752047 7.6468 -0.012525 5.75212 0.293018 3.90675C0.465507 2.8713 1.14432 2.25345 2.19408 2.18621C5.7378 1.94221 9.30508 1.97112 12.8409 2.08496C13.2144 2.0954 13.5904 2.15244 13.9586 2.21736C15.7762 2.53402 15.8205 4.32227 15.9384 5.82764C16.0559 7.34855 16.0063 8.87726 15.7817 10.3878C15.6015 11.6385 15.2568 12.6873 13.8019 12.7886C11.9791 12.921 10.1981 13.0276 8.3701 12.9936C8.37018 12.9856 8.35968 12.9856 8.35447 12.9856ZM6.42463 9.81918C7.79829 9.03531 9.14574 8.2645 10.5115 7.48588C9.13532 6.70201 7.79043 5.9312 6.42463 5.15259V9.81918Z" fill="white"/>
</g>
<defs>
<clipPath id="clip0_94_7232">
<rect width="16" height="16" fill="white"/>
</clipPath>
</defs>
</svg>
