<svg width="21" height="20" viewBox="0 0 21 20" fill="none" xmlns="http://www.w3.org/2000/svg">
<path d="M7.75 16.875C7.75 17.1511 7.52614 17.375 7.25 17.375C6.97386 17.375 6.75 17.1511 6.75 16.875C6.75 16.5989 6.97386 16.375 7.25 16.375C7.52614 16.375 7.75 16.5989 7.75 16.875Z" fill="white" stroke="white" stroke-width="1.5"/>
<path d="M15.875 16.875C15.875 17.1511 15.6511 17.375 15.375 17.375C15.0989 17.375 14.875 17.1511 14.875 16.875C14.875 16.5989 15.0989 16.375 15.375 16.375C15.6511 16.375 15.875 16.5989 15.875 16.875Z" fill="white" stroke="white" stroke-width="1.5"/>
<path d="M4.30469 5.625H18.3203L16.2578 12.8438C16.1842 13.1057 16.0266 13.3363 15.8093 13.5C15.5919 13.6638 15.3268 13.7516 15.0547 13.75H7.57031C7.29819 13.7516 7.03308 13.6638 6.81572 13.5C6.59836 13.3363 6.44078 13.1057 6.36719 12.8438L3.53906 2.95313C3.50169 2.82246 3.42275 2.70754 3.3142 2.62578C3.20565 2.54401 3.0734 2.49986 2.9375 2.5H1.625" stroke="white" stroke-width="1.5" stroke-linecap="round" stroke-linejoin="round"/>
</svg>
