<svg width="16" height="16" viewBox="0 0 16 16" fill="none" xmlns="http://www.w3.org/2000/svg">
<rect width="16" height="16" rx="8" fill="#57AE01"/>
<path d="M11.2828 5.04358C11.1891 5.08315 10.8493 5.44394 9.04528 7.40613C7.87616 8.67935 6.91322 9.7198 6.90384 9.7198C6.89682 9.7198 6.4212 9.22169 5.84953 8.61185C4.69681 7.38053 4.71789 7.39915 4.46251 7.42243C4.29617 7.43639 4.1673 7.5132 4.07593 7.65053C3.99159 7.77855 3.97518 7.97408 4.03844 8.11606C4.09467 8.23943 6.54303 10.8347 6.69767 10.9348C6.77733 10.9884 6.82184 11 6.93899 11C7.10534 11 7.19671 10.9511 7.33963 10.7905C7.39117 10.7323 8.45252 9.57316 9.69661 8.21382C11.9318 5.77446 11.9599 5.74187 11.988 5.61618C12.0325 5.39273 11.9505 5.16229 11.7865 5.0622C11.6623 4.98772 11.4257 4.97841 11.2828 5.04358Z" fill="white"/>
</svg>
