<svg width="24" height="24" viewBox="0 0 24 24" fill="none" xmlns="http://www.w3.org/2000/svg">
<path d="M21.1406 12.7499H18.1406C17.7428 12.7499 17.3613 12.908 17.08 13.1893C16.7987 13.4706 16.6406 13.8521 16.6406 14.2499V17.9999C16.6406 18.3978 16.7987 18.7793 17.08 19.0606C17.3613 19.3419 17.7428 19.4999 18.1406 19.4999H19.6406C20.0384 19.4999 20.42 19.3419 20.7013 19.0606C20.9826 18.7793 21.1406 18.3978 21.1406 17.9999V12.7499ZM21.1406 12.7499C21.1407 11.5617 20.9054 10.3852 20.4484 9.28838C19.9915 8.19154 19.3218 7.19604 18.4781 6.35932C17.6344 5.52261 16.6334 4.86124 15.5328 4.41338C14.4322 3.96553 13.2538 3.74004 12.0656 3.74995C10.8782 3.74129 9.70083 3.96769 8.60132 4.4161C7.5018 4.86452 6.50189 5.52608 5.6592 6.36267C4.81651 7.19926 4.1477 8.19434 3.69131 9.29057C3.23492 10.3868 2.99997 11.5625 3 12.7499V17.9999C3 18.3978 3.15804 18.7793 3.43934 19.0606C3.72064 19.3419 4.10218 19.4999 4.5 19.4999H6C6.39782 19.4999 6.77936 19.3419 7.06066 19.0606C7.34196 18.7793 7.5 18.3978 7.5 17.9999V14.2499C7.5 13.8521 7.34196 13.4706 7.06066 13.1893C6.77936 12.908 6.39782 12.7499 6 12.7499H3" stroke="#FA8232" stroke-width="1.5" stroke-linecap="round" stroke-linejoin="round"/>
</svg>
