<svg width="39" height="39" viewBox="0 0 39 39" fill="none" xmlns="http://www.w3.org/2000/svg">
<path d="M19.5 0C14.3295 0 9.36609 2.05573 5.71289 5.71137C2.05595 9.36848 0.00104644 14.3282 0 19.5C0 24.6696 2.05664 29.633 5.71289 33.2886C9.36609 36.9443 14.3295 39 19.5 39C24.6705 39 29.6339 36.9443 33.2871 33.2886C36.9434 29.633 39 24.6696 39 19.5C39 14.3304 36.9434 9.36701 33.2871 5.71137C29.6339 2.05573 24.6705 0 19.5 0Z" fill="url(#paint0_linear_128_3145)"/>
<path d="M8.82662 19.2941C14.5121 16.8176 18.3024 15.1848 20.1976 14.3959C25.6149 12.1434 26.7392 11.7521 27.4735 11.7389C27.635 11.7363 27.9945 11.7762 28.2291 11.9659C28.4241 12.1258 28.479 12.3422 28.5064 12.4941C28.5308 12.6458 28.5643 12.9916 28.5369 13.2616C28.2444 16.345 26.9738 23.8275 26.3279 27.2811C26.0567 28.7424 25.5174 29.2324 24.9964 29.2802C23.863 29.3844 23.0037 28.5319 21.9069 27.8131C20.1915 26.6879 19.2226 25.9877 17.5559 24.89C15.6303 23.6212 16.8795 22.9238 17.9764 21.7843C18.2628 21.486 23.2536 16.9477 23.348 16.536C23.3602 16.4845 23.3724 16.2926 23.2566 16.1914C23.1439 16.09 22.9763 16.1247 22.8544 16.1521C22.6808 16.1911 19.9416 18.0034 14.6279 21.5887C13.8509 22.1231 13.1471 22.3836 12.5133 22.3699C11.8187 22.355 10.478 21.9762 9.4817 21.6527C8.26295 21.2556 7.291 21.0457 7.37631 20.3714C7.41897 20.0204 7.90342 19.6612 8.82662 19.2941Z" fill="white"/>
<defs>
<linearGradient id="paint0_linear_128_3145" x1="1950" y1="0" x2="1950" y2="3900" gradientUnits="userSpaceOnUse">
<stop stop-color="#2AABEE"/>
<stop offset="1" stop-color="#229ED9"/>
</linearGradient>
</defs>
</svg>
